HIERARCHY
ROOT Hips
{
    OFFSET 0.000000 0.000000 0.000000
    CHANNELS 6 Xposition Yposition Zposition Zrotation Yrotation Xrotation
    JOINT Chest
    {
        OFFSET 0.000000 1.634758 -0.000000
        CHANNELS 3 Zrotation Yrotation Xrotation
        JOINT Chest2
        {
            OFFSET 0.000000 2.197341 0.000000
            CHANNELS 3 Zrotation Yrotation Xrotation
            JOINT Neck
            {
                OFFSET 0.000000 0.961544 0.000000
                CHANNELS 3 Zrotation Yrotation Xrotation
                JOINT Head
                {
                    OFFSET 0.000000 0.632542 -0.032565
                    CHANNELS 3 Zrotation Yrotation Xrotation
                    End Site
                    {
                        OFFSET -0.000001 0.439502 2.922845
                    }
                }
            }
            JOINT LeftCollar
            {
                OFFSET 0.167536 0.778237 -0.168280
                CHANNELS 3 Zrotation Yrotation Xrotation
                JOINT LeftShoulder
                {
                    OFFSET 0.831514 -0.002900 0.006458
                    CHANNELS 3 Zrotation Yrotation Xrotation
                    JOINT LeftElbow
                    {
                        OFFSET 2.272872 -0.026639 0.059314
                        CHANNELS 3 Zrotation Yrotation Xrotation
                        JOINT LeftWrist
                        {
                            OFFSET 2.081982 -0.024402 0.054333
                            CHANNELS 3 Zrotation Yrotation Xrotation
                            JOINT LeftHandThumb1
                            {
                                OFFSET 0.218903 -0.128645 0.283837
                                CHANNELS 3 Zrotation Yrotation Xrotation
                                JOINT LeftHandThumb2
                                {
                                    OFFSET 0.137157 -0.025101 0.077902
                                    CHANNELS 3 Zrotation Yrotation Xrotation
                                    JOINT LeftHandThumb3
                                    {
                                        OFFSET 0.059589 -0.105436 0.137374
                                        CHANNELS 3 Zrotation Yrotation Xrotation
                                        End Site
                                        {
                                            OFFSET 0.063751 -0.149808 0.212908
                                        }
                                    }
                                }
                            }
                            JOINT LeftHandFore1
                            {
                                OFFSET 0.767340 -0.016076 0.196678
                                CHANNELS 3 Zrotation Yrotation Xrotation
                                JOINT LeftHandFore2
                                {
                                    OFFSET 0.216562 0.006316 0.007510
                                    CHANNELS 3 Zrotation Yrotation Xrotation
                                    JOINT LeftHandFore3
                                    {
                                        OFFSET 0.129395 -0.000267 0.004430
                                        CHANNELS 3 Zrotation Yrotation Xrotation
                                        End Site
                                        {
                                            OFFSET 0.193242 0.004292 0.002447
                                        }
                                    }
                                }
                            }
                            JOINT LeftHandMiddle1
                            {
                                OFFSET 0.709887 -0.008320 0.018526
                                CHANNELS 3 Zrotation Yrotation Xrotation
                                JOINT LeftHandMiddle2
                                {
                                    OFFSET 0.230689 -0.079348 -0.023463
                                    CHANNELS 3 Zrotation Yrotation Xrotation
                                    JOINT LeftHandMiddle3
                                    {
                                        OFFSET 0.143871 -0.021373 -0.015083
                                        CHANNELS 3 Zrotation Yrotation Xrotation
                                        End Site
                                        {
                                            OFFSET 0.231363 -0.039241 -0.023699
                                        }
                                    }
                                }
                            }
                            JOINT LeftHandRing1
                            {
                                OFFSET 0.743817 -0.005823 -0.153668
                                CHANNELS 3 Zrotation Yrotation Xrotation
                                JOINT LeftHandRing2
                                {
                                    OFFSET 0.299546 -0.105698 -0.154380
                                    CHANNELS 3 Zrotation Yrotation Xrotation
                                    JOINT LeftHandRing3
                                    {
                                        OFFSET 0.116524 -0.045129 -0.054691
                                        CHANNELS 3 Zrotation Yrotation Xrotation
                                        End Site
                                        {
                                            OFFSET 0.100178 -0.046059 -0.047569
                                        }
                                    }
                                }
                            }
                            JOINT LeftHandLittle1
                            {
                                OFFSET 0.689408 -0.053302 -0.308304
                                CHANNELS 3 Zrotation Yrotation Xrotation
                                JOINT LeftHandLittle2
                                {
                                    OFFSET 0.137632 -0.049071 -0.129242
                                    CHANNELS 3 Zrotation Yrotation Xrotation
                                    JOINT LeftHandLittle3
                                    {
                                        OFFSET 0.058046 -0.032332 -0.100407
                                        CHANNELS 3 Zrotation Yrotation Xrotation
                                        End Site
                                        {
                                            OFFSET 0.110804 -0.024145 -0.153062
                                        }
                                    }
                                }
                            }
                        }
                    }
                }
            }
            JOINT RightCollar
            {
                OFFSET -0.167536 0.778237 -0.168280
                CHANNELS 3 Zrotation Yrotation Xrotation
                JOINT RightShoulder
                {
                    OFFSET -0.831514 -0.002900 0.006457
                    CHANNELS 3 Zrotation Yrotation Xrotation
                    JOINT RightElbow
                    {
                        OFFSET -2.272872 -0.026639 0.059313
                        CHANNELS 3 Zrotation Yrotation Xrotation
                        JOINT RightWrist
                        {
                            OFFSET -2.081982 -0.024402 0.054331
                            CHANNELS 3 Zrotation Yrotation Xrotation
                            JOINT RightHandThumb1
                            {
                                OFFSET -0.218911 -0.128571 0.283837
                                CHANNELS 3 Zrotation Yrotation Xrotation
                                JOINT RightHandThumb2
                                {
                                    OFFSET -0.137157 -0.025101 0.077902
                                    CHANNELS 3 Zrotation Yrotation Xrotation
                                    JOINT RightHandThumb3
                                    {
                                        OFFSET -0.176483 0.048336 0.007539
                                        CHANNELS 3 Zrotation Yrotation Xrotation
                                        End Site
                                        {
                                            OFFSET -0.249942 0.095908 0.012926
                                        }
                                    }
                                }
                            }
                            JOINT RightHandFore1
                            {
                                OFFSET -0.767344 -0.015991 0.196679
                                CHANNELS 3 Zrotation Yrotation Xrotation
                                JOINT RightHandFore2
                                {
                                    OFFSET -0.216564 0.006366 0.007512
                                    CHANNELS 3 Zrotation Yrotation Xrotation
                                    JOINT RightHandFore3
                                    {
                                        OFFSET -0.129393 -0.000237 0.004431
                                        CHANNELS 3 Zrotation Yrotation Xrotation
                                        End Site
                                        {
                                            OFFSET -0.192952 0.004189 0.010907
                                        }
                                    }
                                }
                            }
                            JOINT RightHandMiddle1
                            {
                                OFFSET -0.709887 -0.008302 0.018525
                                CHANNELS 3 Zrotation Yrotation Xrotation
                                JOINT RightHandMiddle2
                                {
                                    OFFSET -0.230677 -0.079370 -0.023461
                                    CHANNELS 3 Zrotation Yrotation Xrotation
                                    JOINT RightHandMiddle3
                                    {
                                        OFFSET -0.144016 -0.021402 -0.013625
                                        CHANNELS 3 Zrotation Yrotation Xrotation
                                        End Site
                                        {
                                            OFFSET -0.231476 -0.039250 -0.022554
                                        }
                                    }
                                }
                            }
                            JOINT RightHandRing1
                            {
                                OFFSET -0.743819 -0.005785 -0.153669
                                CHANNELS 3 Zrotation Yrotation Xrotation
                                JOINT RightHandRing2
                                {
                                    OFFSET -0.299554 -0.105672 -0.154382
                                    CHANNELS 3 Zrotation Yrotation Xrotation
                                    JOINT RightHandRing3
                                    {
                                        OFFSET -0.112055 -0.044318 -0.063911
                                        CHANNELS 3 Zrotation Yrotation Xrotation
                                        End Site
                                        {
                                            OFFSET -0.096254 -0.045347 -0.055669
                                        }
                                    }
                                }
                            }
                            JOINT RightHandLittle1
                            {
                                OFFSET -0.689403 -0.053298 -0.308303
                                CHANNELS 3 Zrotation Yrotation Xrotation
                                JOINT RightHandLittle2
                                {
                                    OFFSET -0.137636 -0.049067 -0.129244
                                    CHANNELS 3 Zrotation Yrotation Xrotation
                                    JOINT RightHandLittle3
                                    {
                                        OFFSET -0.090508 -0.055058 -0.057206
                                        CHANNELS 3 Zrotation Yrotation Xrotation
                                        End Site
                                        {
                                            OFFSET -0.157384 -0.056802 -0.091062
                                        }
                                    }
                                }
                            }
                        }
                    }
                }
            }
        }
    }
    JOINT LeftHip
    {
        OFFSET 0.685143 0.673822 -0.044491
        CHANNELS 3 Zrotation Yrotation Xrotation
        JOINT LeftKnee
        {
            OFFSET 0.085364 -3.750208 0.017676
            CHANNELS 3 Zrotation Yrotation Xrotation
            JOINT LeftAnkle
            {
                OFFSET 0.094583 -4.155206 0.019585
                CHANNELS 3 Zrotation Yrotation Xrotation
                JOINT LeftToe
                {
                    OFFSET -0.000000 -0.395925 0.621478
                    CHANNELS 3 Zrotation Yrotation Xrotation
                    End Site
                    {
                        OFFSET -0.000000 -0.077878 0.321152
                    }
                }
            }
        }
    }
    JOINT RightHip
    {
        OFFSET -0.685143 0.673822 -0.044492
        CHANNELS 3 Zrotation Yrotation Xrotation
        JOINT RightKnee
        {
            OFFSET -0.085364 -3.750208 0.017677
            CHANNELS 3 Zrotation Yrotation Xrotation
            JOINT RightAnkle
            {
                OFFSET -0.094583 -4.155206 0.019585
                CHANNELS 3 Zrotation Yrotation Xrotation
                JOINT RightToe
                {
                    OFFSET -0.000000 -0.395925 0.621478
                    CHANNELS 3 Zrotation Yrotation Xrotation
                    End Site
                    {
                        OFFSET -0.000000 -0.077878 0.321152
                    }
                }
            }
        }
    }
}
MOTION
Frames: 5
Frame Time: 0.033333
5.209549 7.898760 -1.631179 -158.799271 -10.269257 -178.701218 2.890416 -0.050397 16.204573 2.434806 -0.288538 0.366746 -32.527012 -12.075579 0.783317 1.247006 -22.914507 3.855165 -12.034414 -2.948653 -0.068218 -35.158157 -2.586489 66.750633 2.412257 -77.486633 -3.013425 124.215218 74.410828 -4.980199 0.000026 -0.000007 -0.000002 10.303332 28.258595 4.456760 -31.058912 8.282217 -21.783327 3.353121 6.516520 11.678941 0.000003 -0.000002 0.000003 -0.000006 0.000003 0.000000 12.850622 -10.294641 -1.061942 -10.251005 -0.266214 -1.077652 -0.000000 0.000001 -0.000002 8.929847 -24.032719 -9.800099 -12.385530 0.004826 -5.480356 0.000002 -0.000005 0.000000 22.896053 -30.691456 -22.142532 -12.114150 -7.024987 -8.744772 -0.707756 0.393046 -0.813462 -6.385552 5.671454 -0.049380 10.430979 16.821102 -67.108772 -10.288619 86.485680 -10.943370 34.847107 7.787432 -33.034172 0.000000 -0.000009 -0.000000 40.098133 -4.317915 25.201639 -12.567238 4.995196 16.728415 -0.289725 0.535165 0.612891 -3.567324 0.097062 -0.643896 -0.429332 -0.985597 1.914063 4.650134 5.308580 -4.871587 12.726768 0.460589 -7.006660 -3.176836 0.682219 3.770356 19.120186 24.052647 -5.602141 8.571630 -0.193516 -1.598368 -5.840497 1.814654 -0.833855 22.245882 26.713509 -24.225216 1.928145 -14.777736 0.304040 2.408278 -0.448324 -0.979476 32.260227 -2.552305 -41.119919 0.755785 1.183136 65.137230 -1.262404 -3.578954 -36.138710 0.000002 0.000007 0.000003 11.237696 2.304403 -31.652924 -0.402742 -0.942470 46.278103 -6.544155 -21.323946 -17.233578 0.000001 0.000002 -0.000002
5.143770 7.912184 -1.610504 -159.211960 -10.541925 -178.187729 2.901352 0.124049 16.151817 3.130271 -0.395915 0.275831 -32.355007 -9.709250 1.887114 1.003532 -18.787930 6.009922 -12.163019 -2.833366 -0.091546 -37.332893 -0.401154 63.776844 2.263620 -76.842201 -2.860922 117.741577 74.108780 -10.777505 -0.000003 -0.000003 0.000010 10.465836 28.690544 4.155474 -31.058912 8.282216 -21.783327 2.986956 6.229149 11.175936 0.000001 -0.000004 0.000000 -0.000003 0.000006 0.000000 12.770465 -10.175104 -1.067852 -10.251007 -0.266213 -1.077650 0.000002 0.000001 0.000003 9.002254 -23.976734 -10.060469 -11.733032 0.029424 -5.179812 0.000003 -0.000004 -0.000002 22.774668 -30.786436 -21.997292 -11.619061 -7.369368 -8.452382 -0.707759 0.393045 -0.813464 -6.236796 4.938191 -0.057435 14.272468 18.235983 -71.118362 -173.943817 82.865944 -174.660782 3.430423 -9.818490 -34.821434 0.000004 -0.000003 -0.000009 36.585323 -5.729306 25.588825 -9.090761 2.409467 23.869530 10.836070 -0.961603 2.072621 2.989882 -0.203164 -0.621766 1.971490 -1.674543 3.170987 10.193563 4.161012 -7.009759 20.140318 0.834872 -11.067098 1.947571 0.824741 5.433283 21.754454 23.602640 -7.176563 13.551173 -0.040911 -2.544845 -2.006487 1.584679 -5.138151 16.094706 24.442696 -29.908655 5.945241 -15.416299 -2.746598 3.804893 -0.689798 -1.565207 31.300100 -2.518350 -41.672638 0.753745 1.182189 65.038406 -2.179102 -4.189396 -35.798054 0.000000 0.000000 0.000002 10.317817 2.302634 -31.693697 -0.389343 -0.929473 45.457916 -6.738194 -21.082003 -16.616343 -0.000001 -0.000005 -0.000001
5.057692 7.918721 -1.589049 -160.376862 -10.742010 -177.645889 2.446138 0.307030 16.198627 3.286951 -0.442450 0.258856 -31.213423 -8.035849 2.528936 0.829555 -15.706891 7.264099 -12.042998 -2.767080 -0.100454 -39.064621 4.304087 57.185467 2.533258 -77.965996 -3.137299 104.620689 73.709297 -22.357183 -0.000005 0.000013 -0.000009 10.626466 29.130016 3.848699 -31.058912 8.282217 -21.783327 2.620519 5.941856 10.666001 0.000001 0.000001 0.000000 0.000002 -0.000001 0.000000 12.689282 -10.053917 -1.073846 -10.251006 -0.266214 -1.077649 0.000003 -0.000000 0.000003 9.073203 -23.920347 -10.319264 -11.081085 0.050595 -4.879850 0.000001 -0.000001 0.000000 22.652645 -30.881149 -21.851948 -11.127414 -7.716879 -8.162240 -0.707751 0.393042 -0.813460 -5.777196 4.215042 -0.056358 17.404335 16.004704 -70.465408 -177.268021 71.081818 -178.055511 -22.077784 -21.520020 -38.184677 -0.000003 0.000012 -0.000012 33.049225 -7.106769 26.018757 -5.880059 -0.010406 30.874702 21.947441 -2.512770 3.524872 9.545139 -0.528471 -0.611537 4.370040 -2.365505 4.428066 15.762775 2.994283 -9.144947 27.575792 1.288743 -15.107801 7.081607 1.001290 7.093844 24.402079 23.134029 -8.752103 18.525799 0.306883 -3.482715 1.834545 1.454849 -9.494297 10.152356 21.902462 -35.363743 9.964777 -15.868050 -5.893919 5.200828 -0.917217 -2.163273 29.455820 -2.482229 -42.055618 0.750618 1.180730 64.886856 -1.868247 -4.091493 -35.625278 0.000000 0.000001 0.000005 8.577883 2.302557 -31.801498 -0.381880 -0.922067 44.995853 -6.798019 -20.775475 -16.186069 0.000003 0.000008 -0.000000
4.955499 7.920282 -1.567015 -162.184189 -10.656952 -177.085144 1.546439 0.496858 16.341988 2.885706 -0.427184 0.324933 -29.314316 -6.526663 2.938650 0.672871 -12.849579 8.018905 -11.732580 -2.753543 -0.094663 -39.084965 8.135999 51.883442 3.236713 -80.153870 -3.853711 90.176880 72.630638 -34.880287 -0.000005 -0.000007 -0.000015 10.784886 29.576263 3.536762 -31.058907 8.282216 -21.783327 2.253855 5.655361 10.149944 0.000003 -0.000006 0.000003 0.000002 0.000005 0.000002 12.607238 -9.931310 -1.079916 -10.251003 -0.266218 -1.077645 0.000003 -0.000005 -0.000003 9.142482 -23.863745 -10.575856 -10.431411 0.068325 -4.581311 0.000004 -0.000003 0.000003 22.530287 -30.975407 -21.706890 -10.640452 -8.066503 -7.875150 -0.707755 0.393045 -0.813459 -5.072866 3.621470 -0.047584 21.260571 14.645829 -69.104630 -178.001953 59.752087 -178.859421 -55.319214 -32.699955 -28.096092 0.000012 -0.000018 0.000002 29.920088 -8.236959 26.421694 -3.269299 -1.954672 36.890038 31.629459 -3.907977 4.777892 15.262058 -0.831541 -0.614487 6.460576 -2.969834 5.524731 20.642076 1.961923 -11.007186 34.080597 1.748924 -18.606627 11.567744 1.183012 8.543499 26.719973 22.712194 -10.135314 22.855835 0.768406 -4.279717 5.191727 1.426207 -13.328770 5.009015 19.496706 -39.949322 13.462842 -16.106697 -8.705180 6.417910 -1.103927 -2.694784 26.880695 -2.442538 -42.145363 0.745846 1.178483 64.654984 -1.564093 -3.786724 -35.460339 -0.000002 -0.000008 0.000003 6.165623 2.303572 -31.946304 -0.379045 -0.919225 44.819462 -6.764814 -20.226467 -15.920756 0.000003 0.000006 0.000001
4.841084 7.919082 -1.544561 -164.524155 -10.074201 -176.514938 0.213227 0.694718 16.559362 1.895378 -0.342756 0.459681 -26.816952 -4.885467 3.305895 0.500783 -9.635203 8.630429 -11.284743 -2.788882 -0.075037 -37.167290 10.880274 48.417973 4.542594 -82.631805 -5.174395 78.587837 71.379463 -44.506149 0.000008 -0.000013 -0.000012 10.940696 30.028564 3.220026 -31.058912 8.282220 -21.783327 1.886974 5.370444 9.628601 0.000005 -0.000002 0.000000 -0.000007 0.000003 0.000000 12.524432 -9.807411 -1.086052 -10.251004 -0.266210 -1.077645 0.000003 -0.000000 -0.000002 9.209867 -23.807051 -10.829617 -9.785756 0.082635 -4.285068 0.000003 -0.000004 -0.000003 22.407869 -31.068983 -21.562531 -10.159394 -8.417218 -7.591856 -0.707754 0.393044 -0.813462 -4.209141 3.273354 -0.034352 26.327583 14.623614 -66.180214 -178.280441 50.365059 -179.198761 -94.681862 -34.132504 -12.529653 0.000010 -0.000006 0.000007 27.625923 -8.898202 26.712006 -1.516645 -3.222956 41.096115 38.472382 -4.916701 5.652865 19.304970 -1.056083 -0.624259 7.938244 -3.398139 6.300413 24.105150 1.224076 -12.325169 38.692371 2.109711 -21.062027 14.744958 1.326971 9.570949 28.357550 22.410873 -11.136606 25.910746 1.182584 -4.824824 7.570227 1.454891 -16.056414 1.091238 17.702009 -43.111191 15.926973 -16.187267 -10.723962 7.278357 -1.229310 -3.076089 23.725988 -2.398323 -41.858540 0.738756 1.175098 64.309792 -1.404071 -3.105237 -35.312626 -0.000001 -0.000006 -0.000001 3.219334 2.305723 -32.139648 -0.379461 -0.919643 44.845329 -6.684725 -19.245872 -15.791181 0.000002 0.000000 0.000001
